<?xml version="1.0" encoding="UTF-8" standalone="no"?><!DOCTYPE svg PUBLIC "-//W3C//DTD SVG 1.1//EN" "http://www.w3.org/Graphics/SVG/1.1/DTD/svg11.dtd"><svg width="100%" height="100%" viewBox="0 0 41667 8334" version="1.1" xmlns="http://www.w3.org/2000/svg" xmlns:xlink="http://www.w3.org/1999/xlink" xml:space="preserve" xmlns:serif="http://www.serif.com/" style="fill-rule:evenodd;clip-rule:evenodd;stroke-linejoin:round;stroke-miterlimit:2;"><rect id="Artboard1" x="0" y="0" width="41666.667" height="8333.333" style="fill:none;"/><clipPath id="_clip1"><rect x="0" y="0" width="41666.667" height="8333.333"/></clipPath><g clip-path="url(#_clip1)"><g><g><path d="M12100.771,1396.214c-1180.63,0 -2061.265,199.076 -3140.975,725.797c-1624.404,799.068 -8959.796,4457.087 -8959.796,4457.087l3113.325,0l4121.147,-2061.265l4202.713,2061.265l3023.465,0l-5737.256,-2832.684c0,0 1097.682,-572.343 1878.778,-971.877c580.638,-290.319 1089.387,-471.423 1580.165,-517.044c270.964,-29.032 652.526,-37.327 982.937,-37.327c377.415,0 687.088,9.677 687.088,9.677l971.877,-835.013l-2723.468,0l0,1.382Z" style="fill:#f9a413;"/><path d="M17102.552,1396.214l-870.957,5182.885l1188.925,0l353.913,-2095.826l2152.508,0l-345.618,2095.826l1198.603,0l862.662,-5182.885l-1190.308,0l-335.941,1987.994l-2159.42,0l335.941,-1987.994l-1190.308,0Z" style="fill:#f9a413;"/><path d="M22422.302,1396.214l-862.662,5182.885l1198.603,0l544.694,-3276.457l1788.918,3276.457l1188.925,0l870.957,-5182.885l-1197.22,0l-536.399,3194.891l-1733.619,-3194.891l-1262.196,0Z" style="fill:#f9a413;"/><path d="M27932.832,1396.214l-190.781,1125.332l1705.97,0c308.291,0 572.343,63.594 789.391,181.104c218.43,117.51 381.562,282.024 472.805,490.777c99.538,208.753 127.187,445.156 81.566,717.503c-27.649,226.725 -109.215,427.184 -217.048,616.582c-117.51,190.781 -264.052,353.913 -435.478,490.777c-172.809,145.159 -363.59,254.375 -572.343,326.263c-208.753,71.889 -427.184,109.215 -653.909,109.215l-1661.73,0l-181.104,1125.332l1697.675,0c407.829,0 799.068,-63.594 1170.953,-181.104c363.59,-127.187 689.853,-299.996 971.877,-526.722c282.024,-226.725 517.044,-490.777 707.825,-789.391c190.781,-308.291 317.968,-653.909 381.562,-1016.116c91.243,-517.044 45.622,-980.172 -136.865,-1379.706c-181.104,-389.857 -463.128,-707.825 -844.69,-934.551c-389.857,-236.403 -844.69,-353.913 -1389.384,-353.913l-1696.292,0l0,-1.382Z" style="fill:#f9a413;"/><path d="M32934.613,1396.214l-862.662,5182.885l1188.925,0l290.319,-1733.619l635.937,0l717.503,1733.619l1334.085,0l-844.69,-1934.077c326.263,-127.187 598.61,-326.263 807.363,-580.638c218.43,-254.375 353.913,-554.371 407.829,-880.634c63.594,-344.235 27.649,-653.909 -99.538,-926.256c-127.187,-272.347 -326.263,-481.1 -590.315,-635.937c-272.347,-154.837 -598.61,-226.725 -980.172,-226.725l-2004.583,0l0,1.382Zm1842.834,1089.387c199.076,0 353.913,53.916 463.128,154.837c109.215,99.538 163.132,226.725 154.837,389.857c-8.295,154.837 -53.916,282.024 -127.187,389.857c-81.566,109.215 -190.781,190.781 -317.968,244.697c-127.187,53.916 -272.347,81.566 -435.478,81.566l-771.419,0l199.076,-1262.196l835.013,0l0,1.382Z" style="fill:#f9a413;"/><path d="M37564.509,1396.214l-872.339,5182.885l1697.675,0c417.506,0 807.363,-53.916 1170.953,-181.104c371.885,-127.187 689.853,-299.996 980.172,-526.722c282.024,-218.43 517.044,-490.777 707.825,-789.391c181.104,-308.291 308.291,-644.232 371.885,-1016.116c91.243,-517.044 45.622,-980.172 -127.187,-1379.706c-181.104,-389.857 -463.128,-707.825 -844.69,-934.551c-389.857,-236.403 -852.985,-353.913 -1389.384,-353.913l-1694.91,0l0,-1.382Zm1516.571,1125.332c308.291,0 572.343,53.916 789.391,181.104c218.43,117.51 371.885,282.024 472.805,490.777c99.538,208.753 127.187,453.451 81.566,717.503c-35.944,226.725 -109.215,435.478 -226.725,616.582c-117.51,190.781 -254.375,353.913 -427.184,490.777c-172.809,145.159 -363.59,254.375 -572.343,326.263c-208.753,73.271 -427.184,109.215 -653.909,109.215l-471.423,0l499.072,-2932.222l508.749,0Z" style="fill:#f9a413;"/></g></g></g></svg>