<svg xmlns="http://www.w3.org/2000/svg" viewBox="0 0 48 48" fill="none">
  <path d="M11 18.5a3.5 3.5 0 0 1 3.5-3.5h4l2-3h7l2 3h4.5a3.5 3.5 0 0 1 3.5 3.5v13a3.5 3.5 0 0 1-3.5 3.5h-20a3.5 3.5 0 0 1-3.5-3.5v-13Z" fill="#fff" fill-opacity=".14"/>
  <g stroke="#fff" stroke-width="2.6" stroke-linecap="round" stroke-linejoin="round">
    <path d="M11 18.5a3.5 3.5 0 0 1 3.5-3.5h4l2-3h7l2 3h4.5a3.5 3.5 0 0 1 3.5 3.5v13a3.5 3.5 0 0 1-3.5 3.5h-20a3.5 3.5 0 0 1-3.5-3.5v-13Z"/>
    <circle cx="24" cy="25" r="5.5"/>
    <path d="m19 39 3 3 7-8"/>
  </g>
</svg>
