<svg xmlns="http://www.w3.org/2000/svg" viewBox="0 0 48 48" fill="none">
  <path d="M24 11c5.8 0 10.5 4.7 10.5 10.5S29.8 32 24 32c-5.8 0-10.5-4.7-10.5-10.5S18.2 11 24 11Z" fill="#fff" fill-opacity=".12"/>
  <g stroke="#fff" stroke-width="2.6" stroke-linecap="round" stroke-linejoin="round">
    <path d="M24 6v4"/>
    <path d="M24 38v4"/>
    <path d="m11.3 11.3 2.9 2.9"/>
    <path d="m33.8 33.8 2.9 2.9"/>
    <path d="M6 24h4"/>
    <path d="M38 24h4"/>
    <path d="m11.3 36.7 2.9-2.9"/>
    <path d="m33.8 14.2 2.9-2.9"/>
    <path d="M31 24a7 7 0 1 1-14 0 7 7 0 0 1 14 0Z"/>
  </g>
</svg>
