<svg xmlns="http://www.w3.org/2000/svg" viewBox="0 0 48 48" fill="none">
  <path d="M12 14.5a3.5 3.5 0 0 1 3.5-3.5h10l8.5 8.5v13A3.5 3.5 0 0 1 30.5 36H15.5A3.5 3.5 0 0 1 12 32.5v-18Z" fill="#fff" fill-opacity=".14"/>
  <g stroke="#fff" stroke-width="2.6" stroke-linecap="round" stroke-linejoin="round">
    <path d="M12 14.5a3.5 3.5 0 0 1 3.5-3.5h10l8.5 8.5v13A3.5 3.5 0 0 1 30.5 36H15.5A3.5 3.5 0 0 1 12 32.5v-18Z"/>
    <path d="M25 11v8.5h8.5"/>
    <circle cx="32.5" cy="33.5" r="4.5"/>
    <path d="m36 37 4 4"/>
  </g>
</svg>
