<svg width="46.18" height="9.22" viewBox="0.9 19.38 46.18 9.22" fill="none" xmlns="http://www.w3.org/2000/svg">
  <path d="M40.242 22.808 L40.049 22.614 L39.855 22.485 L39.512 22.356 L39.34 22.335 L39.318 22.313 L38.953 22.292 L38.932 22.271 L37.686 22.271 L37.664 22.292 L37.492 22.292 L37.256 22.378 L37.191 22.442 L37.17 22.528 L37.385 22.765 L37.363 22.937 L37.299 23.108 L37.256 23.345 L37.213 23.431 L37.127 23.839 L37.084 23.925 L37.041 24.161 L36.998 24.247 L36.998 24.312 L36.977 24.333 L36.977 24.397 L36.891 24.655 L36.891 24.72 L36.869 24.741 L36.869 24.806 L36.848 24.827 L36.74 25.278 L36.654 25.407 L36.504 25.472 L36.396 25.579 L36.396 25.687 L36.418 25.729 L36.525 25.772 L38.158 25.772 L38.18 25.751 L38.395 25.751 L38.416 25.729 L38.545 25.729 L38.566 25.708 L38.76 25.687 L38.846 25.644 L38.975 25.622 L39.254 25.493 L39.576 25.278 L39.834 25.042 L40.027 24.806 L40.178 24.569 L40.371 24.118 L40.371 24.054 L40.436 23.86 L40.436 23.731 L40.457 23.71 L40.457 23.345 L40.436 23.323 L40.436 23.237 L40.371 23.022 Z M39.168 22.765 L39.383 22.979 L39.512 23.28 L39.533 23.688 L39.512 23.71 L39.512 23.839 L39.49 23.86 L39.469 24.032 L39.361 24.354 L39.254 24.569 L39.018 24.892 L38.738 25.149 L38.459 25.321 L38.223 25.407 L38.008 25.429 L37.986 25.45 L37.771 25.45 L37.707 25.429 L37.643 25.364 L37.643 25.192 L37.729 24.935 L37.836 24.44 L37.879 24.354 L37.922 24.118 L37.965 24.032 L37.965 23.968 L37.986 23.946 L38.029 23.71 L38.072 23.624 L38.072 23.56 L38.094 23.538 L38.094 23.474 L38.115 23.452 L38.115 23.388 L38.137 23.366 L38.137 23.302 L38.158 23.28 L38.266 22.829 L38.309 22.743 L38.459 22.636 L38.803 22.636 L38.824 22.657 L38.91 22.657 Z M34.893 22.829 L34.785 22.7 L34.527 22.507 L34.291 22.399 L34.076 22.356 L34.055 22.335 L33.969 22.335 L33.947 22.313 L33.582 22.292 L33.561 22.271 L32.314 22.271 L32.293 22.292 L32.121 22.292 L31.885 22.378 L31.82 22.464 L31.82 22.571 L32.014 22.743 L32.014 22.872 L31.992 22.894 L31.971 23.044 L31.928 23.13 L31.885 23.366 L31.842 23.452 L31.777 23.774 L31.734 23.86 L31.627 24.354 L31.584 24.44 L31.584 24.505 L31.52 24.677 L31.52 24.741 L31.498 24.763 L31.498 24.827 L31.477 24.849 L31.369 25.3 L31.262 25.429 L31.133 25.472 L31.047 25.558 L31.025 25.687 L31.09 25.751 L31.154 25.772 L32.787 25.772 L32.809 25.751 L33.045 25.751 L33.066 25.729 L33.174 25.729 L33.195 25.708 L33.389 25.687 L33.604 25.622 L33.926 25.472 L34.098 25.364 L34.291 25.214 L34.527 24.978 L34.678 24.784 L34.871 24.462 L34.871 24.419 L34.936 24.312 L35.021 24.075 L35.043 23.903 L35.064 23.882 L35.064 23.774 L35.086 23.753 L35.086 23.302 L35.064 23.28 L35.064 23.194 L35.021 23.065 Z M33.625 22.679 L33.797 22.765 L33.947 22.894 L34.033 23.001 L34.141 23.259 L34.141 23.345 L34.162 23.366 L34.162 23.731 L34.141 23.753 L34.141 23.86 L34.119 23.882 L34.076 24.14 L34.012 24.269 L34.012 24.312 L33.775 24.741 L33.689 24.849 L33.346 25.171 L33.045 25.343 L32.852 25.407 L32.637 25.429 L32.615 25.45 L32.4 25.45 L32.336 25.429 L32.271 25.343 L32.271 25.214 L32.293 25.192 L32.336 24.956 L32.379 24.87 L32.465 24.462 L32.508 24.376 L32.551 24.14 L32.594 24.054 L32.594 23.989 L32.615 23.968 L32.615 23.903 L32.637 23.882 L32.68 23.646 L32.723 23.56 L32.723 23.495 L32.744 23.474 L32.744 23.409 L32.83 23.151 L32.895 22.851 L32.959 22.722 L33.088 22.636 L33.453 22.636 L33.475 22.657 Z M45.936 22.271 L45.871 22.271 L45.85 22.249 L45.162 22.249 L45.033 22.292 L44.947 22.399 L44.947 22.528 L45.055 22.593 L45.119 22.7 L45.076 22.829 L44.732 23.28 L44.131 23.903 L44.066 23.839 L43.873 23.431 L43.658 22.808 L43.658 22.679 L43.809 22.571 L43.916 22.421 L43.895 22.313 L43.766 22.249 L42.82 22.249 L42.799 22.271 L42.734 22.271 L42.605 22.356 L42.562 22.421 L42.562 22.528 L42.691 22.679 L42.777 22.829 L42.82 23.044 L42.885 23.194 L42.885 23.259 L43.014 23.56 L43.035 23.667 L43.186 23.968 L43.186 24.011 L43.379 24.354 L43.379 24.44 L43.357 24.462 L43.357 24.526 L43.336 24.548 L43.293 24.784 L43.25 24.87 L43.164 25.257 L43.035 25.407 L42.885 25.472 L42.82 25.536 L42.777 25.622 L42.777 25.687 L42.82 25.751 L42.885 25.772 L44.002 25.772 L44.152 25.708 L44.195 25.622 L44.195 25.515 L44.002 25.343 L44.002 25.257 L44.023 25.235 L44.066 24.999 L44.109 24.913 L44.109 24.849 L44.26 24.312 L44.99 23.538 L45.506 22.937 L45.592 22.808 L45.764 22.636 L45.85 22.593 L45.957 22.485 L45.979 22.442 L45.979 22.313 Z M42.412 22.271 L42.348 22.271 L42.326 22.249 L41.338 22.249 L41.209 22.292 L41.145 22.356 L41.145 22.485 L41.273 22.593 L41.273 22.786 L41.209 22.958 L41.059 23.603 L41.016 23.688 L41.016 23.753 L40.994 23.774 L40.908 24.183 L40.865 24.269 L40.822 24.505 L40.779 24.591 L40.715 24.913 L40.672 24.999 L40.629 25.235 L40.564 25.386 L40.307 25.579 L40.285 25.708 L40.371 25.772 L41.445 25.772 L41.51 25.751 L41.574 25.687 L41.596 25.558 L41.445 25.386 L41.467 25.257 L41.488 25.235 L41.531 24.999 L41.574 24.913 L41.639 24.591 L41.682 24.505 L41.854 23.774 L41.896 23.688 L42.111 22.786 L42.176 22.636 L42.412 22.464 L42.455 22.378 L42.455 22.313 Z M31.477 22.636 L31.24 22.421 L31.111 22.356 L30.918 22.292 L30.811 22.292 L30.789 22.271 L30.596 22.271 L30.574 22.249 L28.941 22.249 L28.791 22.313 L28.748 22.399 L28.748 22.507 L28.92 22.657 L28.92 22.851 L28.898 22.872 L28.877 23.022 L28.791 23.259 L28.684 23.753 L28.641 23.839 L28.555 24.247 L28.447 24.569 L28.275 25.3 L28.232 25.386 L28.146 25.472 L27.996 25.536 L27.932 25.622 L27.932 25.729 L27.975 25.772 L29.156 25.772 L29.178 25.751 L29.242 25.751 L29.328 25.644 L29.328 25.558 L29.285 25.493 L29.135 25.407 L29.113 25.321 L29.135 25.3 L29.135 25.214 L29.156 25.192 L29.221 24.87 L29.264 24.784 L29.285 24.634 L29.328 24.548 L29.328 24.483 L29.436 24.44 L29.715 24.44 L29.736 24.419 L29.994 24.397 L30.016 24.376 L30.188 24.354 L30.338 24.29 L30.402 24.29 L30.832 24.097 L31.133 23.882 L31.283 23.731 L31.434 23.517 L31.541 23.259 L31.584 22.937 L31.562 22.915 L31.562 22.808 Z M30.51 22.7 L30.66 22.851 L30.703 22.979 L30.682 23.28 L30.553 23.56 L30.445 23.688 L30.295 23.817 L30.08 23.946 L29.736 24.054 L29.479 24.075 L29.457 24.054 L29.457 23.989 L29.479 23.968 L29.521 23.731 L29.564 23.646 L29.607 23.409 L29.65 23.323 L29.736 22.915 L29.822 22.7 L29.887 22.636 L29.951 22.636 L29.973 22.614 L30.23 22.614 Z M25.439 22.292 L25.375 22.356 L25.332 22.464 L25.354 22.528 L25.504 22.657 L25.504 22.765 L25.418 23.022 L25.396 23.173 L25.354 23.259 L25.354 23.323 L25.332 23.345 L25.268 23.667 L25.225 23.753 L25.139 24.161 L25.096 24.247 L25.074 24.397 L25.031 24.483 L24.924 24.978 L24.795 25.343 L24.688 25.429 L24.623 25.45 L24.494 25.579 L24.473 25.622 L24.494 25.729 L24.58 25.772 L26.686 25.772 L26.707 25.751 L26.857 25.751 L26.879 25.729 L27.051 25.708 L27.373 25.579 L27.588 25.429 L27.803 25.192 L27.846 25.085 L27.889 25.042 L27.975 24.806 L27.975 24.741 L27.996 24.72 L27.996 24.419 L27.91 24.204 L27.738 24.011 L27.631 23.946 L27.438 23.882 L27.803 23.667 L28.039 23.431 L28.125 23.302 L28.254 22.937 L28.254 22.722 L28.189 22.55 L28.061 22.421 L27.91 22.335 L27.76 22.292 L27.674 22.292 L27.652 22.271 L27.48 22.271 L27.459 22.249 L25.59 22.249 Z M27.051 24.333 L27.115 24.462 L27.115 24.698 L27.094 24.72 L27.094 24.784 L26.965 25.042 L26.793 25.214 L26.6 25.321 L26.385 25.386 L26.299 25.386 L26.277 25.407 L25.848 25.429 L25.826 25.407 L25.74 25.407 L25.676 25.343 L25.676 25.257 L25.697 25.235 L25.805 24.741 L25.848 24.655 L25.934 24.269 L26.02 24.204 L26.191 24.204 L26.213 24.183 L26.449 24.161 L26.578 24.118 L26.707 24.118 L26.922 24.204 Z M27.309 22.765 L27.352 22.851 L27.33 23.108 L27.201 23.345 L27.051 23.495 L26.857 23.624 L26.814 23.624 L26.578 23.731 L26.514 23.731 L26.406 23.774 L26.277 23.774 L26.256 23.796 L26.084 23.796 L26.062 23.774 L26.084 23.753 L26.127 23.517 L26.17 23.431 L26.191 23.28 L26.234 23.194 L26.32 22.786 L26.428 22.636 L26.514 22.636 L26.535 22.614 L26.943 22.614 L26.965 22.636 L27.158 22.657 Z M13.602 22.292 L13.494 22.399 L13.494 22.55 L13.537 22.614 L13.602 22.636 L13.688 22.722 L13.688 22.872 L13.666 22.894 L13.602 23.216 L13.559 23.302 L13.537 23.452 L13.494 23.538 L13.258 24.526 L13.15 24.849 L13.064 25.257 L12.936 25.407 L12.742 25.515 L12.678 25.665 L12.699 25.729 L12.807 25.772 L13.902 25.772 L14.031 25.729 L14.117 25.622 L14.117 25.515 L13.924 25.343 L13.924 25.257 L13.945 25.235 L14.01 24.913 L14.053 24.827 L14.096 24.591 L14.139 24.526 L14.268 24.462 L14.525 24.269 L14.59 24.312 L14.762 24.591 L14.912 24.892 L15.041 25.278 L15.041 25.386 L14.912 25.472 L14.805 25.579 L14.783 25.665 L14.848 25.751 L14.912 25.772 L16.008 25.772 L16.18 25.708 L16.244 25.601 L16.244 25.515 L16.115 25.407 L16.029 25.3 L15.965 25.021 L15.793 24.548 L15.729 24.44 L15.729 24.397 L15.535 24.032 L15.277 23.688 L15.879 23.194 L16.352 22.765 L16.76 22.55 L16.824 22.464 L16.824 22.356 L16.803 22.313 L16.738 22.271 L16.652 22.271 L16.631 22.249 L15.857 22.249 L15.686 22.313 L15.621 22.399 L15.621 22.528 L15.771 22.657 L15.771 22.7 L15.686 22.829 L15.084 23.388 L14.268 24.054 L14.246 24.011 L14.311 23.839 L14.311 23.774 L14.396 23.517 L14.396 23.452 L14.418 23.431 L14.418 23.366 L14.439 23.345 L14.439 23.28 L14.461 23.259 L14.568 22.808 L14.697 22.657 L14.891 22.528 L14.934 22.421 L14.934 22.356 L14.891 22.292 L14.762 22.249 L13.752 22.249 Z M2.967 22.292 L2.881 22.378 L2.859 22.507 L3.031 22.657 L3.031 22.722 L3.01 22.743 L2.924 23.151 L2.881 23.237 L2.838 23.474 L2.795 23.56 L2.73 23.882 L2.688 23.968 L2.58 24.462 L2.473 24.784 L2.408 25.106 L2.322 25.321 L2.236 25.407 L2.043 25.536 L2 25.601 L2 25.708 L2.107 25.772 L4.213 25.772 L4.234 25.751 L4.385 25.751 L4.406 25.729 L4.643 25.687 L4.922 25.558 L5.051 25.472 L5.287 25.235 L5.438 24.978 L5.523 24.677 L5.502 24.354 L5.373 24.118 L5.223 23.989 L4.965 23.882 L5.008 23.839 L5.201 23.753 L5.373 23.624 L5.523 23.474 L5.631 23.323 L5.695 23.194 L5.781 22.894 L5.781 22.743 L5.717 22.571 L5.674 22.507 L5.545 22.399 L5.287 22.292 L5.201 22.292 L5.18 22.271 L4.986 22.271 L4.965 22.249 L3.117 22.249 Z M4.557 24.312 L4.621 24.419 L4.621 24.483 L4.643 24.505 L4.621 24.763 L4.514 24.999 L4.363 25.171 L4.17 25.3 L3.912 25.386 L3.59 25.407 L3.568 25.429 L3.375 25.429 L3.354 25.407 L3.246 25.407 L3.203 25.364 L3.203 25.214 L3.246 25.128 L3.439 24.312 L3.482 24.226 L3.525 24.204 L3.848 24.183 L3.869 24.161 L4.084 24.14 L4.105 24.118 L4.234 24.118 L4.406 24.183 Z M4.836 22.765 L4.879 22.915 L4.836 23.151 L4.707 23.366 L4.6 23.474 L4.277 23.667 L4.02 23.753 L3.805 23.774 L3.783 23.796 L3.611 23.796 L3.59 23.774 L3.654 23.495 L3.697 23.409 L3.805 22.915 L3.848 22.829 L3.848 22.765 L3.955 22.636 L4.02 22.636 L4.041 22.614 L4.471 22.614 L4.492 22.636 L4.6 22.636 L4.729 22.679 Z M5.309 25.622 L5.309 25.708 L5.395 25.772 L6.168 25.772 L6.254 25.708 L6.297 25.601 L6.275 25.536 L6.146 25.407 L6.146 25.3 L6.211 25.149 L6.254 25.106 L6.318 24.956 L6.512 24.634 L7.758 24.634 L7.779 24.655 L7.779 24.827 L7.801 24.849 L7.801 25.321 L7.758 25.407 L7.564 25.558 L7.543 25.601 L7.543 25.729 L7.607 25.772 L8.682 25.772 L8.811 25.708 L8.854 25.622 L8.875 25.644 L8.875 25.708 L8.961 25.772 L9.928 25.772 L9.992 25.751 L10.057 25.687 L10.078 25.558 L10.014 25.493 L9.885 25.45 L9.82 25.386 L9.82 25.214 L9.863 25.128 L9.928 24.806 L9.971 24.72 L10.164 23.903 L10.207 23.817 L10.25 23.581 L10.293 23.495 L10.293 23.431 L10.379 23.151 L10.486 23.302 L10.486 23.345 L10.723 23.796 L10.723 23.839 L11.174 24.763 L11.238 24.956 L11.367 25.192 L11.367 25.235 L11.582 25.708 L11.646 25.772 L11.775 25.815 L11.99 25.815 L12.012 25.794 L12.076 25.794 L12.205 25.687 L12.312 25.407 L12.42 24.913 L12.463 24.827 L12.549 24.419 L12.592 24.333 L12.613 24.183 L12.656 24.097 L12.742 23.688 L12.785 23.603 L12.871 23.194 L12.914 23.108 L12.914 23.044 L13 22.765 L13.129 22.614 L13.322 22.528 L13.387 22.442 L13.387 22.313 L13.279 22.249 L12.506 22.249 L12.377 22.292 L12.291 22.399 L12.291 22.507 L12.506 22.679 L12.506 22.872 L12.463 22.958 L12.463 23.022 L12.441 23.044 L12.355 23.452 L12.312 23.538 L12.227 23.946 L12.184 24.032 L12.162 24.183 L12.119 24.269 L12.076 24.505 L12.033 24.569 L11.926 24.333 L11.926 24.29 L11.861 24.183 L11.818 24.032 L11.518 23.409 L11.518 23.366 L11.023 22.421 L10.895 22.292 L10.766 22.249 L9.928 22.249 L9.82 22.292 L9.777 22.335 L9.756 22.485 L9.777 22.528 L9.928 22.593 L9.992 22.657 L10.014 22.743 L9.992 22.765 L9.992 22.851 L9.928 23.022 L9.906 23.173 L9.863 23.259 L9.777 23.667 L9.734 23.753 L9.627 24.247 L9.52 24.569 L9.434 24.978 L9.326 25.3 L9.197 25.429 L8.961 25.515 L8.875 25.644 L8.854 25.622 L8.854 25.536 L8.703 25.364 L8.682 24.677 L8.66 24.655 L8.66 24.419 L8.639 24.397 L8.596 23.817 L8.574 23.796 L8.574 23.646 L8.553 23.624 L8.51 23.216 L8.488 23.194 L8.488 23.108 L8.467 23.087 L8.467 23.001 L8.445 22.979 L8.445 22.894 L8.424 22.872 L8.359 22.507 L8.273 22.292 L8.188 22.206 L8.123 22.185 L7.887 22.185 L7.693 22.292 L7.479 22.507 L7.307 22.722 L6.555 23.817 L5.674 25.278 L5.523 25.45 L5.373 25.536 Z M7.564 23.022 L7.607 23.087 L7.629 23.323 L7.672 23.474 L7.736 24.204 L7.715 24.226 L6.812 24.226 L6.791 24.161 L7.393 23.237 Z M19.145 20.444 L18.973 20.702 L18.736 21.153 L18.736 21.196 L18.65 21.347 L18.543 21.69 L18.479 21.819 L18.479 21.884 L18.436 21.97 L18.436 22.034 L18.307 22.485 L18.307 22.593 L18.285 22.614 L18.264 22.851 L18.242 22.872 L18.242 23.001 L18.221 23.022 L18.199 23.452 L18.178 23.474 L18.178 24.526 L18.199 24.548 L18.199 24.763 L18.221 24.784 L18.221 24.956 L18.242 24.978 L18.242 25.128 L18.264 25.149 L18.285 25.386 L18.307 25.407 L18.328 25.601 L18.35 25.622 L18.414 25.944 L18.457 26.03 L18.457 26.095 L18.629 26.589 L18.801 26.933 L18.801 26.976 L18.994 27.319 L19.166 27.556 L19.338 27.577 L19.359 27.599 L19.467 27.599 L19.488 27.62 L19.596 27.62 L19.617 27.642 L19.918 27.663 L19.939 27.685 L20.154 27.685 L20.176 27.706 L21.508 27.706 L21.529 27.685 L21.938 27.663 L21.959 27.642 L22.066 27.642 L22.088 27.62 L22.195 27.62 L22.217 27.599 L22.539 27.556 L22.797 27.147 L22.969 26.804 L22.969 26.761 L23.033 26.653 L23.055 26.546 L23.098 26.481 L23.205 26.181 L23.205 26.116 L23.27 25.966 L23.27 25.901 L23.355 25.622 L23.377 25.429 L23.398 25.407 L23.398 25.3 L23.42 25.278 L23.42 25.171 L23.463 25.021 L23.463 24.87 L23.484 24.849 L23.484 24.634 L23.506 24.612 L23.527 23.796 L23.506 23.774 L23.506 23.388 L23.484 23.366 L23.463 22.979 L23.441 22.958 L23.441 22.851 L23.42 22.829 L23.42 22.722 L23.398 22.7 L23.398 22.593 L23.377 22.571 L23.355 22.378 L23.312 22.271 L23.312 22.185 L23.27 22.099 L23.27 22.034 L23.119 21.562 L23.076 21.497 L22.99 21.239 L22.646 20.595 L22.561 20.466 L22.496 20.423 L22.152 20.38 L22.131 20.358 L22.002 20.358 L21.98 20.337 L21.615 20.315 L21.594 20.294 L21.357 20.294 L21.336 20.272 L20.369 20.272 L20.348 20.294 L20.09 20.294 L20.068 20.315 L19.725 20.337 L19.703 20.358 L19.574 20.358 L19.553 20.38 L19.445 20.38 L19.424 20.401 L19.316 20.401 L19.295 20.423 Z M20.648 20.552 L21.035 20.552 L21.057 20.573 L21.164 20.573 L21.465 20.659 L21.766 20.81 L22.088 21.046 L22.432 21.411 L22.754 21.905 L22.99 22.442 L23.141 22.979 L23.162 23.173 L23.184 23.194 L23.205 23.495 L23.227 23.517 L23.227 23.817 L23.248 23.839 L23.227 24.483 L23.205 24.505 L23.205 24.655 L23.184 24.677 L23.162 24.913 L23.119 25.021 L23.076 25.278 L22.904 25.772 L22.582 26.374 L22.389 26.632 L22.002 27.019 L21.787 27.169 L21.594 27.276 L21.551 27.276 L21.314 27.384 L21.143 27.405 L21.121 27.427 L20.949 27.427 L20.928 27.448 L20.562 27.427 L20.197 27.319 L19.939 27.19 L19.746 27.062 L19.316 26.653 L19.037 26.267 L18.758 25.708 L18.543 24.999 L18.521 24.784 L18.5 24.763 L18.5 24.634 L18.479 24.612 L18.479 24.419 L18.457 24.397 L18.457 23.581 L18.479 23.56 L18.479 23.388 L18.5 23.366 L18.5 23.237 L18.521 23.216 L18.564 22.894 L18.736 22.335 L18.994 21.798 L19.145 21.562 L19.402 21.239 L19.789 20.896 L20.176 20.681 L20.434 20.595 L20.627 20.573 Z M21.035 26.481 L21.078 26.739 L21.207 26.847 L21.207 26.976 L21.336 26.976 L21.336 26.847 L21.465 26.739 L21.508 26.481 L21.357 26.481 L21.357 26.632 L21.314 26.696 L21.229 26.696 L21.186 26.632 L21.186 26.481 Z M20.756 26.481 L20.756 26.976 L20.906 26.976 L20.906 26.481 Z M20.176 26.481 L20.176 26.976 L20.477 26.976 L20.541 26.954 L20.627 26.847 L20.627 26.61 L20.605 26.567 L20.498 26.481 Z M20.348 26.567 L20.434 26.589 L20.498 26.675 L20.498 26.782 L20.434 26.868 L20.348 26.868 L20.326 26.847 L20.326 26.589 Z M19.381 21.862 L19.553 22.013 L19.553 22.12 L19.574 22.142 L19.574 23.001 L19.596 23.022 L19.596 24.978 L19.574 24.999 L19.574 25.45 L19.531 25.515 L19.402 25.536 L19.381 25.601 L19.574 25.579 L19.961 25.687 L19.982 25.622 L19.832 25.579 L19.768 25.515 L19.768 22.056 L19.789 22.013 L19.961 21.862 L19.854 21.927 L19.789 21.927 L19.768 21.948 L19.553 21.948 Z M19.295 21.626 L19.338 21.69 L19.488 21.755 L19.682 21.755 L19.703 21.733 L19.811 21.733 L19.918 21.69 L20.004 21.69 L20.24 21.841 L20.455 21.841 L20.52 21.819 L20.584 21.905 L20.627 22.034 L20.627 22.12 L20.648 22.142 L20.648 22.571 L20.627 22.593 L20.627 22.679 L20.498 22.979 L20.412 23.087 L20.348 23.13 L20.326 23.108 L20.326 22.056 L20.434 21.948 L20.348 21.991 L20.24 21.991 L20.197 22.013 L20.09 21.948 L19.961 21.927 L20.068 22.034 L20.133 22.228 L20.133 23.087 L20.111 23.108 L19.961 23.108 L20.111 23.151 L20.154 23.194 L20.197 23.194 L20.434 23.323 L20.627 23.517 L20.734 23.839 L20.713 23.86 L20.562 23.86 L20.541 23.882 L20.348 23.882 L20.326 23.86 L20.326 23.345 L20.305 23.366 L20.197 23.366 L20.133 23.323 L20.133 23.86 L19.918 23.925 L19.918 23.946 L20.09 23.946 L20.133 23.989 L20.133 24.269 L20.111 24.29 L20.111 25.601 L20.047 25.622 L20.025 25.665 L20.219 25.665 L20.434 25.751 L20.434 25.708 L20.369 25.687 L20.305 25.622 L20.326 24.011 L20.348 23.989 L20.412 24.011 L20.713 24.011 L20.756 24.097 L20.756 24.634 L20.734 24.655 L20.734 24.892 L20.713 24.913 L20.691 25.192 L20.67 25.214 L20.67 25.3 L20.605 25.515 L20.455 25.815 L20.305 25.966 L20.176 26.03 L19.918 26.03 L19.617 25.901 L19.467 25.901 L19.338 25.987 L19.639 26.009 L20.004 26.181 L20.197 26.181 L20.348 26.116 L20.477 26.009 L20.584 25.858 L20.648 25.815 L21.443 26.224 L21.637 26.245 L21.809 26.159 L22.045 25.901 L22.238 25.515 L22.303 25.3 L22.324 25.106 L22.346 25.085 L22.389 24.655 L22.41 24.634 L22.41 24.376 L22.432 24.354 L22.432 23.56 L22.41 23.538 L22.389 22.7 L22.367 22.679 L22.367 22.507 L22.346 22.485 L22.346 22.335 L22.324 22.313 L22.303 22.099 L22.174 21.712 L22.109 21.626 L21.98 21.562 L21.723 21.562 L21.551 21.669 L21.508 21.626 L21.293 21.54 L20.842 21.562 L20.52 21.669 L20.391 21.562 L20.197 21.497 L19.961 21.519 L19.789 21.604 L19.574 21.669 L19.338 21.669 Z M20.068 21.69 L20.09 21.669 L20.283 21.669 L20.412 21.712 L20.348 21.755 L20.219 21.755 Z M20.82 21.69 L20.906 21.69 L21.035 21.798 L21.143 21.841 L21.357 21.841 L21.379 21.819 L21.529 21.798 L21.594 21.884 L21.787 21.884 L21.744 21.798 L21.68 21.755 L21.83 21.647 L21.916 21.669 L22.023 21.798 L22.109 22.056 L22.109 22.249 L22.131 22.271 L22.131 22.464 L22.152 22.485 L22.152 22.722 L22.174 22.743 L22.174 23.022 L22.195 23.044 L22.195 23.452 L22.217 23.474 L22.217 24.032 L22.195 24.054 L22.174 24.784 L22.152 24.806 L22.152 24.978 L22.131 24.999 L22.109 25.257 L22.088 25.278 L22.066 25.472 L22.002 25.687 L21.873 25.944 L21.658 26.138 L21.572 26.138 L21.443 26.095 L21.078 25.901 L20.691 25.772 L20.67 25.729 L20.799 25.493 L20.863 25.278 L20.885 25.063 L20.906 25.042 L20.906 24.827 L20.928 24.806 L20.928 24.204 L20.906 24.183 L20.906 24.011 L20.928 23.989 L21.014 23.989 L21.164 23.946 L21.379 23.839 L21.615 23.624 L21.723 23.474 L21.83 23.237 L21.83 23.173 L21.873 23.087 L21.895 22.851 L21.916 22.829 L21.916 22.571 L21.938 22.55 L21.938 22.485 L21.916 22.464 L21.916 22.249 L21.895 22.228 L21.895 22.142 L21.83 21.927 L21.744 21.97 L21.658 21.97 L21.637 21.948 L21.658 22.163 L21.68 22.185 L21.701 22.636 L21.68 22.657 L21.658 23.065 L21.572 23.345 L21.443 23.56 L21.293 23.688 L21.121 23.774 L20.906 23.817 L20.885 23.839 L20.842 23.774 L20.82 23.646 L20.713 23.409 L20.541 23.194 L20.67 22.937 L20.756 22.679 L20.777 22.464 L20.799 22.442 L20.799 22.249 L20.777 22.228 L20.756 22.056 L20.67 21.862 L20.605 21.776 L20.67 21.733 Z M21.293 24.054 L21.164 24.118 L21.164 25.601 L21.143 25.622 L21.121 25.601 L21.014 25.601 L21.014 25.622 L21.207 25.687 L21.271 25.687 L21.594 25.837 L21.637 25.815 L21.422 25.687 L21.357 25.622 L21.357 24.397 L21.336 24.376 L21.336 24.054 Z M21.422 21.948 L21.357 21.97 L20.971 21.97 L21.078 22.013 L21.143 22.077 L21.121 23.603 L21.314 23.538 L21.336 23.474 L21.336 22.034 Z M21.1 21.69 L21.143 21.647 L21.186 21.669 L21.314 21.669 L21.422 21.712 L21.465 21.755 L21.443 21.776 L21.314 21.776 Z" fill="#FFFFFF" fill-rule="evenodd"/>
</svg>
